<svg width="152" height="28" fill="none" xmlns="http://www.w3.org/2000/svg"><path fill-rule="evenodd" clip-rule="evenodd" d="M32.6855 23.6245C32.979 24.3487 33.2731 25.0725 33.5677 25.7959C33.7805 26.3178 33.9928 26.8398 34.2045 27.362C34.239 27.4475 34.2714 27.5339 34.3089 27.6361L31.9367 27.6357C29.402 27.6345 26.7802 27.6336 24.2017 27.6445C23.9433 27.6453 23.8776 27.6009 23.801 27.3637C23.5746 26.6651 23.333 25.9593 23.0989 25.277L23.081 25.2247L23.0809 25.2244L23.0807 25.2238L23.0807 25.2237L23.0807 25.2237C22.8738 24.6188 22.6603 23.9945 22.4587 23.3785C22.3177 22.9477 22.0749 22.7712 21.6216 22.7712H21.611C18.8297 22.788 15.9137 22.788 12.9446 22.7721H12.9358C12.5035 22.7721 12.2695 22.9418 12.1289 23.3571C11.6992 24.6274 11.2218 25.9744 10.6688 27.4752C10.6276 27.5416 10.5665 27.5933 10.4941 27.6231C7.47006 27.6371 4.39609 27.6354 1.41793 27.6337L1.21862 27.6336L0.456787 27.6332C0.469377 27.6021 0.481725 27.5711 0.494026 27.5402L0.526227 27.4597L0.548217 27.4046L0.548237 27.4045C0.660488 27.1233 0.770206 26.8484 0.883999 26.5754C1.7007 24.6154 2.51753 22.6556 3.3345 20.6959C4.41609 18.1031 5.4967 15.51 6.57632 12.9166C8.17828 9.06843 9.83454 5.08952 11.4752 1.1085C11.5716 0.874231 11.6465 0.822266 11.8928 0.822266H11.8995C15.4835 0.835669 19.2716 0.835669 23.1579 0.823098C23.4209 0.817239 23.4984 0.871302 23.5901 1.09929C26.3374 7.92261 29.1406 14.8566 31.8516 21.5617L32.6855 23.6245ZM17.1717 9.22853L14.4956 16.7488H20.1631L17.5826 9.26458L17.1717 9.22853ZM56.4293 17.4047C56.7797 16.6227 57.1301 15.8407 57.4807 15.0586L57.5818 15.08V15.507C57.5818 16.3377 57.582 17.1684 57.5821 17.999C57.5828 21.0718 57.5836 24.1447 57.5746 27.2179C57.5738 27.5515 57.6638 27.6445 58.0001 27.6424C59.878 27.6319 61.7559 27.633 63.6339 27.6342C64.2212 27.6345 64.8085 27.6349 65.3959 27.6349H65.7919V4.58286C65.752 4.56573 65.7102 4.55348 65.6673 4.5464L63.9399 4.54499C61.2112 4.54262 58.9092 4.54062 55.9625 4.54932C55.8972 4.56027 55.8353 4.58604 55.7816 4.62463C55.7279 4.66322 55.6838 4.7136 55.6527 4.77187C54.6404 7.061 52.1974 11.3578 51.0895 13.3062L51.0893 13.3066C50.7647 13.8775 50.5547 14.2467 50.5291 14.3047C50.516 14.279 50.4219 14.1196 50.2669 13.8569L50.2669 13.8568C49.3776 12.3497 46.4823 7.4429 45.3515 4.87372C45.3188 4.76114 45.2464 4.66404 45.1478 4.60011C45.0491 4.53618 44.9307 4.50968 44.814 4.52544C41.438 4.53508 39.0287 4.54178 35.6526 4.54178H35.2532V27.6349H35.6497C36.2489 27.6349 36.8481 27.6344 37.4474 27.6339H37.4474H37.4475H37.4475H37.4475H37.4482C39.3018 27.6322 41.1556 27.6306 43.0092 27.6445C43.3851 27.6471 43.4726 27.5423 43.4713 27.1781C43.4608 24.1116 43.4616 21.0454 43.4625 17.9793V17.9762C43.4627 17.1399 43.4629 16.3036 43.4629 15.4672V15.0716L43.5593 15.0653C43.5862 15.1261 43.6133 15.1868 43.6404 15.2475L43.6405 15.2476L43.6405 15.2477L43.6406 15.2478L43.6406 15.2479C43.7016 15.3844 43.7626 15.5209 43.8211 15.6584C45.4015 19.3717 46.9783 23.0864 48.5517 26.8026C48.5746 26.8887 48.6277 26.9637 48.7015 27.0141C48.7753 27.0645 48.8647 27.0868 48.9536 27.0771C49.9129 27.0637 50.8725 27.0653 51.8318 27.0758C51.9206 27.0851 52.0098 27.0629 52.0838 27.0131C52.1577 26.9632 52.2116 26.889 52.2358 26.8034C53.6316 23.6695 55.0294 20.5366 56.4293 17.4047ZM122.719 11.3016C122.091 8.88387 120.44 7.27663 118.306 6.11657C116.203 4.97285 113.921 4.49172 111.54 4.51142C109.243 4.53025 106.945 4.51676 104.648 4.50327C102.037 4.48794 99.4264 4.47261 96.8159 4.50471C96.7688 4.50527 96.7219 4.51012 96.6652 4.51598C96.6352 4.51909 96.6024 4.52248 96.5654 4.52566V27.6783H105.913V22.3759L105.868 16.2696C105.864 16.2721 105.859 16.2738 105.855 16.2763V11.3641C106.177 11.0699 106.519 10.7945 106.854 10.5257C107.511 9.99753 108.136 9.4947 108.509 8.92451C108.81 8.46448 109.008 8.00115 109.161 7.6425C109.326 7.25587 109.439 6.99088 109.573 6.98283C110.074 6.9535 110.219 8.91655 110.219 8.91655C110.219 8.91655 110.848 8.15672 111.321 8.01213C111.637 7.91533 111.939 8.07919 111.614 8.58798C111.476 8.78605 111.362 8.99922 111.272 9.22333C111.202 9.47817 111.169 9.74166 111.175 10.0058C112.623 10.4756 112.786 11.0523 112.786 11.0523C112.816 11.2776 112.924 11.4857 113.089 11.6419C113.255 11.7981 113.47 11.8931 113.698 11.911C114.332 12.0195 114.954 12.1934 115.553 12.4298C116.112 12.5413 115.823 13.3234 115.621 13.289C115.65 15.4624 113.746 15.625 112.653 15.4243C112.653 15.4243 106.843 14.2399 107.33 21.0775C107.565 21.0875 107.8 21.0982 108.035 21.1089C110.313 21.2124 112.591 21.3159 114.847 20.8319C117.29 20.308 119.486 19.311 121.158 17.3995C122.699 15.638 123.315 13.5987 122.719 11.3016ZM94.3696 4.53915V27.6758L86.5888 27.6758V13.5254C86.223 14.2337 79.7714 24.6877 78.0494 27.4018C78.0276 27.4884 77.9749 27.5643 77.9011 27.6152C77.8273 27.6661 77.7375 27.6885 77.6483 27.6784C75.4364 27.6737 74.0364 27.6784 72.5508 27.6834C71.3487 27.6875 70.0905 27.6917 68.3009 27.6914C68.2378 27.6914 68.175 27.6869 68.1124 27.6824C68.0813 27.6801 68.0503 27.6779 68.0193 27.6763V4.54417H75.774V18.8262C75.8127 18.797 76.9795 16.8917 78.4644 14.4668L78.4645 14.4667C80.6034 10.974 83.4024 6.40342 84.4413 4.80821C84.465 4.71698 84.5218 4.63769 84.6006 4.58556C84.6795 4.53343 84.7749 4.51212 84.8685 4.52574C86.6681 4.52892 88.7321 4.53093 90.4757 4.53263C92.6377 4.53474 94.3072 4.53636 94.3696 4.53915ZM141.956 4.49916C141.862 4.48549 141.767 4.50676 141.688 4.55891C141.609 4.61105 141.552 4.69038 141.528 4.78164C140.488 6.37871 137.685 10.957 135.545 14.451C134.063 16.8709 132.9 18.7706 132.861 18.7996V4.5176H125.106V27.6497C125.137 27.6514 125.169 27.6536 125.2 27.6558C125.262 27.6603 125.325 27.6648 125.388 27.6648C127.16 27.6651 128.411 27.661 129.602 27.6572H129.603C130.065 27.6557 130.518 27.6542 130.989 27.653L135.498 27.6522C136.582 27.4724 137.896 26.8945 138.069 25.1602C137.882 23.2316 139 22.2039 139.298 21.947C139.568 21.7193 139.826 21.4768 140.069 21.2207C140.296 21.0933 140.71 20.3364 140.722 19.9953C140.735 19.6537 140.271 19.2866 140.271 19.2866C140.04 19.0816 139.792 18.8963 139.53 18.7325C139.02 18.3852 139.045 17.609 139.061 17.1186L139.063 17.0327C139.076 16.5516 139.266 16.5067 139.668 16.4904C140.047 16.4753 140.308 16.311 140.637 16.1036L140.696 16.0662C140.781 16.0127 140.858 15.9545 140.934 15.8969C141.176 15.7129 141.409 15.5361 141.877 15.5457C142.243 15.5537 142.601 15.4345 142.888 15.2088L142.928 15.1958C142.928 15.1958 143.24 13.3635 143.456 13.3585C143.641 13.3542 144.121 14.8462 144.517 16.075L144.517 16.0752C144.583 16.2812 144.647 16.4797 144.707 16.6626L144.736 16.7515C145.01 17.5866 145.234 18.2691 145.115 19.699C145.116 19.6982 145.121 19.6952 145.121 19.6952C145.121 19.6952 144.976 21.556 145.305 22.5413C145.52 23.0592 145.816 23.5396 146.182 23.9646C147.259 24.9597 148.105 26.1767 148.661 27.5307C148.667 27.5443 148.672 27.5579 148.678 27.5716C148.682 27.5815 148.685 27.5914 148.689 27.6013C148.695 27.6174 148.701 27.6336 148.708 27.6497L149.795 27.6493H151.457V4.51299C151.396 4.51027 149.789 4.50865 147.688 4.50653L147.688 4.50653L147.687 4.50653C145.918 4.50475 143.798 4.50261 141.956 4.49916ZM135.199 27.6941L134.025 27.7016C134.416 27.7401 134.809 27.7376 135.199 27.6941Z" fill="white"/></svg>