<svg width="41" height="30" viewBox="0 0 41 30" fill="none" xmlns="http://www.w3.org/2000/svg">
<path fill-rule="evenodd" clip-rule="evenodd" d="M0 1.62671C0 1.07442 0.447715 0.626709 1 0.626709H39.1409C39.6932 0.626709 40.1409 1.07442 40.1409 1.62671C40.1409 2.17899 39.6932 2.62671 39.1409 2.62671H1C0.447715 2.62671 0 2.17899 0 1.62671ZM0 14.9761C0 14.4238 0.447715 13.9761 1 13.9761H39.1409C39.6932 13.9761 40.1409 14.4238 40.1409 14.9761C40.1409 15.5284 39.6932 15.9761 39.1409 15.9761H1C0.447715 15.9761 0 15.5284 0 14.9761ZM1 27.3252C0.447715 27.3252 0 27.7729 0 28.3252C0 28.8775 0.447715 29.3252 1 29.3252H39.1409C39.6932 29.3252 40.1409 28.8775 40.1409 28.3252C40.1409 27.7729 39.6932 27.3252 39.1409 27.3252H1Z" fill="white"/>
</svg>
