<svg width="30" height="37" viewBox="0 0 30 37" fill="none" xmlns="http://www.w3.org/2000/svg">
<path fill-rule="evenodd" clip-rule="evenodd" d="M14.9799 0.753418C13.9748 0.753418 13.0202 0.955366 12.1129 1.3276L12.1128 1.32754L12.1015 1.33233C11.193 1.71672 10.3757 2.25891 9.67453 2.98288C8.97306 3.69689 8.4322 4.52018 8.05716 5.44606C7.68264 6.37067 7.49487 7.33411 7.49487 8.33842V9.37354H1.86987H0.744873V10.4985V35.2485V36.3735H1.86987H28.1199H29.2449V35.2485V10.4985V9.37354H28.1199H22.4749V8.33842C22.4749 6.33724 21.6916 4.40184 20.2803 2.97793C19.5871 2.27334 18.7741 1.7198 17.8582 1.33233C16.9349 0.941692 15.9654 0.753418 14.9799 0.753418ZM20.2249 11.6235V13.8784H22.4749V11.6235H26.9949V34.1235H2.99487V11.6235H7.49487V13.8784H9.74487V11.6235H20.2249ZM20.2249 9.37354V8.33842C20.2249 6.92039 19.6688 5.55654 18.6811 4.56061L18.6777 4.55721C18.1914 4.0626 17.625 3.67672 16.9815 3.40451C16.3449 3.13514 15.6744 3.00342 14.9799 3.00342C14.2869 3.00342 13.6234 3.14067 12.9726 3.4069C12.3249 3.6817 11.7652 4.05766 11.2885 4.55055L11.2819 4.55734L11.2819 4.55731C10.785 5.06252 10.4069 5.6381 10.1426 6.29078C9.8771 6.94617 9.74487 7.62272 9.74487 8.33842V9.37354H20.2249Z" fill="white"/>
</svg>
