<svg width="36" height="32" viewBox="0 0 36 32" fill="none" xmlns="http://www.w3.org/2000/svg">
<path d="M17.3379 5.07907L18.1479 5.89907L18.9479 5.07907C19.8279 4.17907 21.8379 2.58907 24.2379 1.91907C26.5579 1.26907 29.2579 1.46907 31.8279 4.08907C34.3979 6.71907 34.6079 9.50907 33.9579 11.9091C33.2979 14.3891 31.7379 16.4491 30.8579 17.3491L23.3679 25.0191L19.1679 29.3091L18.1279 30.3691L17.0879 29.3091L12.8879 25.0191L5.40789 17.3591C4.52789 16.4591 2.96789 14.3991 2.30789 11.9191C1.66789 9.50907 1.86789 6.72907 4.43789 4.09907C7.00789 1.46907 9.69789 1.27907 12.0279 1.92907C14.4379 2.59907 16.4479 4.19907 17.3179 5.09907L17.3379 5.07907Z" stroke="white" stroke-width="2.25"/>
</svg>
