<svg width="36" height="37" viewBox="0 0 36 37" fill="none" xmlns="http://www.w3.org/2000/svg">
<path fill-rule="evenodd" clip-rule="evenodd" d="M23.63 13.7364C23.63 14.1064 23.59 14.4664 23.52 14.8364C23.45 15.2064 23.34 15.5464 23.2 15.8964C23.06 16.2464 22.89 16.5664 22.68 16.8664C22.47 17.1664 22.24 17.4564 21.98 17.7164C21.72 17.9764 21.43 18.2064 21.13 18.4164C20.82 18.6264 20.5 18.7964 20.16 18.9364C19.82 19.0764 19.47 19.1864 19.1 19.2564C18.74 19.3264 18.37 19.3664 18 19.3664C17.63 19.3664 17.26 19.3264 16.9 19.2564C16.54 19.1864 16.19 19.0764 15.84 18.9364C15.5 18.7964 15.17 18.6264 14.87 18.4164C14.56 18.2064 14.28 17.9764 14.02 17.7164C13.76 17.4564 13.53 17.1664 13.32 16.8664C13.11 16.5564 12.94 16.2364 12.8 15.8964C12.66 15.5564 12.55 15.2064 12.48 14.8364C12.41 14.4764 12.37 14.1064 12.37 13.7364C12.37 13.3664 12.41 12.9964 12.48 12.6364C12.55 12.2764 12.66 11.9264 12.8 11.5764C12.94 11.2264 13.11 10.9064 13.32 10.6064C13.53 10.2964 13.76 10.0164 14.02 9.75641C14.28 9.49641 14.57 9.26641 14.87 9.05641C15.18 8.84641 15.5 8.67641 15.84 8.53641C16.18 8.39641 16.53 8.28641 16.9 8.21641C17.26 8.14641 17.63 8.10641 18 8.10641C18.37 8.10641 18.74 8.14641 19.1 8.21641C19.46 8.28641 19.81 8.39641 20.16 8.53641C20.5 8.67641 20.83 8.84641 21.13 9.05641C21.43 9.26641 21.72 9.49641 21.98 9.75641C22.24 10.0164 22.47 10.3064 22.68 10.6064C22.89 10.9064 23.06 11.2364 23.2 11.5764C23.34 11.9164 23.45 12.2664 23.52 12.6364C23.59 13.0064 23.63 13.3664 23.63 13.7364ZM21.38 13.7364C21.38 14.1864 21.29 14.6164 21.12 15.0264C20.95 15.4364 20.7 15.8064 20.39 16.1164C20.07 16.4364 19.71 16.6764 19.3 16.8464C18.89 17.0164 18.46 17.1064 18.01 17.1064C17.56 17.1064 17.13 17.0164 16.72 16.8464C16.31 16.6764 15.94 16.4264 15.63 16.1164C15.31 15.7964 15.07 15.4364 14.9 15.0264C14.73 14.6164 14.64 14.1864 14.64 13.7364C14.64 13.2864 14.73 12.8564 14.9 12.4464C15.07 12.0364 15.32 11.6664 15.63 11.3464C15.95 11.0264 16.31 10.7864 16.72 10.6164C17.13 10.4464 17.56 10.3564 18.01 10.3564C18.46 10.3564 18.89 10.4464 19.3 10.6164C19.71 10.7864 20.08 11.0364 20.39 11.3464C20.71 11.6664 20.95 12.0264 21.12 12.4464C21.29 12.8564 21.38 13.2864 21.38 13.7364ZM36 18.0564C36 22.7864 34.18 27.0864 31.2 30.2964C30.36 31.2064 29.43 32.0164 28.42 32.7364C27.41 33.4564 26.34 34.0664 25.2 34.5564C24.06 35.0564 22.89 35.4264 21.68 35.6764C20.47 35.9264 19.24 36.0564 18 36.0564C14.8 36.0564 11.82 35.2664 9.04999 33.6764C7.66999 32.8864 6.42999 31.9364 5.29999 30.8164C4.17999 29.6964 3.21999 28.4564 2.41999 27.0864C1.62999 25.7164 1.01999 24.2664 0.609985 22.7364C0.199985 21.2064 -0.0100098 19.6464 -0.0100098 18.0664C-0.0100098 8.12641 8.04999 0.0664062 17.99 0.0664062C27.93 0.0664062 35.99 8.12641 35.99 18.0664L36 18.0564ZM18 21.6564C19.2 21.6564 20.38 21.8064 21.54 22.0964C22.7 22.3864 23.81 22.8264 24.86 23.3964C25.91 23.9664 26.88 24.6564 27.76 25.4664C28.64 26.2764 29.41 27.1864 30.06 28.1864C31.25 26.7664 32.17 25.1864 32.8 23.4464C33.43 21.7064 33.75 19.9064 33.75 18.0564C33.75 9.35641 26.7 2.30641 18 2.30641C9.29998 2.30641 2.24998 9.35641 2.24998 18.0564C2.24998 21.9164 3.63999 25.4464 5.93999 28.1864C6.58999 27.1864 7.35999 26.2764 8.23999 25.4664C9.11999 24.6564 10.09 23.9664 11.14 23.3964C12.19 22.8264 13.3 22.3964 14.46 22.0964C15.62 21.8064 16.8 21.6564 18 21.6564ZM18 33.8064C22.01 33.8064 25.67 32.3064 28.44 29.8464C27.9 28.9364 27.26 28.1164 26.5 27.3864C25.75 26.6464 24.91 26.0164 24 25.4964C23.08 24.9764 22.12 24.5764 21.1 24.3164C20.08 24.0464 19.05 23.9164 17.99 23.9164C16.94 23.9164 15.9 24.0464 14.88 24.3164C13.86 24.5864 12.89 24.9764 11.98 25.5064C11.06 26.0264 10.23 26.6564 9.47999 27.3964C8.72999 28.1364 8.07999 28.9564 7.53999 29.8564C8.97999 31.1364 10.6 32.1164 12.4 32.7964C14.2 33.4764 16.06 33.8164 17.99 33.8164L18 33.8064Z" fill="white"/>
</svg>
