<svg width="152" height="31" viewBox="0 0 152 31" fill="none" xmlns="http://www.w3.org/2000/svg">
<g clip-path="url(#clip0_106_4283)">
<path d="M33.6109 28.7959C33.3163 28.0725 33.0222 27.3487 32.7287 26.6245L31.8949 24.5617C29.1838 17.8566 26.3806 10.9226 23.6333 4.09929C23.5416 3.8713 23.4641 3.81724 23.2011 3.8231C19.3149 3.83567 15.5267 3.83567 11.9427 3.82227H11.936C11.6897 3.82227 11.6148 3.87423 11.5184 4.1085C9.87775 8.08952 8.22149 12.0684 6.61953 15.9166C5.53991 18.51 4.45931 21.1031 3.37771 23.6959C2.56075 25.6556 1.74391 27.6154 0.927212 29.5754C0.805993 29.8662 0.689399 30.1592 0.56944 30.4597C0.546293 30.5171 0.52357 30.5749 0.5 30.6332L1.26184 30.6336C4.30203 30.6353 7.44576 30.6374 10.5373 30.6231C10.6097 30.5933 10.6708 30.5416 10.712 30.4752C11.2651 28.9744 11.7424 27.6274 12.1721 26.3571C12.3127 25.9418 12.5467 25.7721 12.979 25.7721H12.9878C15.9569 25.788 18.8729 25.788 21.6543 25.7712H21.6648C22.1181 25.7712 22.361 25.9477 22.5019 26.3785C22.7095 27.0126 22.9296 27.6555 23.1421 28.277C23.3762 28.9593 23.6178 29.6651 23.8442 30.3637C23.9208 30.6009 23.9865 30.6453 24.2449 30.6445C26.8234 30.6336 29.4452 30.6345 31.9799 30.6357L34.3521 30.6361C34.3146 30.5339 34.2822 30.4475 34.2477 30.362C34.036 29.8398 33.8237 29.3178 33.6109 28.7959ZM14.5389 19.7488L17.215 12.2285L17.6258 12.2646L20.2063 19.7488H14.5389Z" fill="white"/>
<path d="M57.524 18.0586C57.1734 18.8407 56.8229 19.6227 56.4726 20.4047C55.0726 23.5366 53.6748 26.6695 52.2791 29.8034C52.2548 29.889 52.2009 29.9632 52.127 30.0131C52.0531 30.0629 51.9638 30.0851 51.875 30.0758C50.9158 30.0653 49.9561 30.0637 48.9969 30.0771C48.908 30.0868 48.8185 30.0645 48.7447 30.0141C48.671 29.9637 48.6178 29.8887 48.5949 29.8026C47.0216 26.0864 45.4447 22.3717 43.8644 18.6584C43.7798 18.4597 43.6901 18.2631 43.6026 18.0653C43.5706 18.0674 43.5382 18.0695 43.5062 18.0716V18.4672C43.5062 22.3707 43.5011 26.2742 43.5146 30.1781C43.5159 30.5423 43.4283 30.6471 43.0524 30.6445C40.5994 30.6261 38.146 30.6349 35.6929 30.6349H35.2964V7.54178H35.6959C39.0719 7.54178 41.4812 7.53508 44.8573 7.52544C44.9739 7.50968 45.0924 7.53618 45.191 7.60011C45.2897 7.66404 45.362 7.76114 45.3948 7.87372C46.7227 10.8908 50.4839 17.1316 50.5723 17.3047C50.6855 17.049 54.387 10.732 55.696 7.77187C55.727 7.7136 55.7711 7.66322 55.8248 7.62463C55.8785 7.58604 55.9404 7.56027 56.0058 7.54932C59.5519 7.53885 62.1645 7.54388 65.7106 7.5464C65.7534 7.55348 65.7953 7.56573 65.8352 7.58286V30.6349H65.4391C62.9739 30.6349 60.5086 30.6286 58.0434 30.6424C57.7071 30.6445 57.617 30.5515 57.6178 30.2179C57.6292 26.314 57.625 22.4105 57.625 18.507V18.08C57.5913 18.0729 57.5577 18.0657 57.524 18.0586Z" fill="white"/>
<path d="M122.762 14.3018C122.134 11.884 120.483 10.2768 118.35 9.11669C116.246 7.97297 113.964 7.49184 111.583 7.51154C106.675 7.55177 101.767 7.44448 96.8592 7.50484C96.7872 7.50568 96.7157 7.51658 96.6087 7.52579V30.6784H105.957V25.376L105.911 19.2697C105.907 19.2723 105.903 19.2739 105.899 19.2765V14.3642C106.852 13.4921 107.99 12.785 108.552 11.9246C109.178 10.9687 109.358 9.99847 109.617 9.98296C110.117 9.95362 110.262 11.9167 110.262 11.9167C110.262 11.9167 110.891 11.1568 111.364 11.0123C111.681 10.9154 111.983 11.0793 111.658 11.5881C111.52 11.7862 111.405 11.9993 111.316 12.2235C111.246 12.4783 111.213 12.7418 111.218 13.0059C112.666 13.4757 112.829 14.0524 112.829 14.0524C112.86 14.2777 112.967 14.4858 113.133 14.642C113.299 14.7983 113.513 14.8932 113.741 14.9111C114.376 15.0197 114.998 15.1935 115.597 15.43C116.155 15.5414 115.866 16.3235 115.664 16.2891C115.693 18.4626 113.789 18.6252 112.697 18.4244C112.697 18.4244 106.886 17.2401 107.374 24.0776C109.886 24.1849 112.401 24.366 114.891 23.832C117.333 23.3082 119.53 22.3111 121.201 20.3996C122.742 18.6382 123.358 16.5988 122.762 14.3018Z" fill="white"/>
<path d="M94.4128 30.6758V7.53915C94.3 7.53412 88.9427 7.53287 84.9117 7.52574C84.8181 7.51212 84.7227 7.53343 84.6438 7.58556C84.565 7.63769 84.5082 7.71698 84.4845 7.80821C82.7243 10.511 75.9115 21.7549 75.8172 21.8262V7.54417H68.0625V30.6763C68.1559 30.6813 68.2498 30.6914 68.3441 30.6914C72.3456 30.6922 73.69 30.67 77.6915 30.6784C77.7807 30.6885 77.8706 30.6661 77.9443 30.6152C78.0181 30.5643 78.0708 30.4884 78.0927 30.4018C79.8146 27.6877 86.2662 17.2337 86.632 16.5254V30.6758L94.4128 30.6758Z" fill="white"/>
<path d="M141.999 7.49928C141.905 7.48561 141.81 7.50689 141.731 7.55903C141.652 7.61117 141.595 7.6905 141.572 7.78176C139.811 10.4849 132.998 21.7289 132.904 21.7997V7.51773H125.15V30.6498C125.243 30.6548 125.337 30.6649 125.431 30.6649C127.891 30.6653 129.346 30.6574 131.032 30.6532L135.541 30.6523C136.626 30.4725 137.939 29.8946 138.112 28.1604C137.925 26.2317 139.044 25.2041 139.341 24.9472C139.611 24.7194 139.869 24.477 140.112 24.2209C140.34 24.0934 140.753 23.3366 140.766 22.9954C140.778 22.6538 140.314 22.2867 140.314 22.2867C140.083 22.0818 139.836 21.8964 139.574 21.7327C139.032 21.3643 139.093 20.5135 139.106 20.0328C139.119 19.5517 139.309 19.5068 139.711 19.4905C140.113 19.4746 140.382 19.291 140.739 19.0664C141.097 18.8417 141.306 18.5333 141.921 18.5458C142.286 18.5538 142.644 18.4347 142.931 18.2089L142.972 18.1959C142.972 18.1959 143.283 16.3636 143.499 16.3586C143.715 16.3536 144.334 18.3887 144.75 19.6627C145.037 20.5395 145.281 21.2189 145.158 22.6991C145.159 22.6983 145.164 22.6953 145.164 22.6953C145.164 22.6953 145.019 24.5561 145.348 25.5414C145.563 26.0593 145.859 26.5398 146.226 26.9647C147.302 27.9598 148.148 29.1768 148.704 30.5308C148.721 30.5702 148.735 30.61 148.751 30.6498L149.839 30.6494H151.5V7.51312C151.387 7.50809 146.03 7.50683 141.999 7.49928Z" fill="white"/>
<path d="M135.242 30.6941L134.068 30.7016C134.459 30.7401 134.852 30.7376 135.242 30.6941Z" fill="white"/>
</g>
<defs>
<clipPath id="clip0_106_4283">
<rect width="151" height="30" fill="white" transform="translate(0.5 0.728027)"/>
</clipPath>
</defs>
</svg>
